<?xml version="1.0" encoding="UTF-8" standalone="no"?>
<!DOCTYPE svg PUBLIC "-//W3C//DTD SVG 1.1//EN" "http://www.w3.org/Graphics/SVG/1.1/DTD/svg11.dtd">
<svg xmlns="http://www.w3.org/2000/svg" viewBox="0 0 400 1000">
<g class="layer1">
<path d="M 75 100 L 75 200" stroke="white" stroke-width="9" fill="none" class="backline"></path>
<path d="M 75 100 L 75 200" stroke="black" stroke-width="4" fill="none" class="frontline"></path>
<path d="M 175 100 L 175 200" stroke="white" stroke-width="9" fill="none" class="backline"></path>
<path d="M 175 100 L 175 200" stroke="black" stroke-width="4" fill="none" class="frontline"></path>
<path d="M 275 100 L 275 200" stroke="white" stroke-width="9" fill="none" class="backline"></path>
<path d="M 275 100 L 275 200" stroke="black" stroke-width="4" fill="none" class="frontline"></path>
<path d="M 375 100 L 375 200" stroke="white" stroke-width="9" fill="none" class="backline"></path>
<path d="M 375 100 L 375 200" stroke="black" stroke-width="4" fill="none" class="frontline"></path>
<path d="M 175 200 L 175 300" stroke="white" stroke-width="9" fill="none" class="backline"></path>
<path d="M 175 200 L 175 300" stroke="black" stroke-width="4" fill="none" class="frontline"></path>
<path d="M 375 200 L 375 300" stroke="white" stroke-width="9" fill="none" class="backline"></path>
<path d="M 375 200 L 375 300" stroke="black" stroke-width="4" fill="none" class="frontline"></path>
<path d="M 75 300 L 75 400" stroke="white" stroke-width="9" fill="none" class="backline"></path>
<path d="M 75 300 L 75 400" stroke="black" stroke-width="4" fill="none" class="frontline"></path>
<path d="M 175 300 L 175 400" stroke="white" stroke-width="9" fill="none" class="backline"></path>
<path d="M 175 300 L 175 400" stroke="black" stroke-width="4" fill="none" class="frontline"></path>
<path d="M 375 300 L 375 400" stroke="white" stroke-width="9" fill="none" class="backline"></path>
<path d="M 375 300 L 375 400" stroke="black" stroke-width="4" fill="none" class="frontline"></path>
<path d="M 175 400 L 175 500" stroke="white" stroke-width="9" fill="none" class="backline"></path>
<path d="M 175 400 L 175 500" stroke="black" stroke-width="4" fill="none" class="frontline"></path>
<path d="M 275 400 L 275 500" stroke="white" stroke-width="9" fill="none" class="backline"></path>
<path d="M 275 400 L 275 500" stroke="black" stroke-width="4" fill="none" class="frontline"></path>
<path d="M 375 400 L 375 500" stroke="white" stroke-width="9" fill="none" class="backline"></path>
<path d="M 375 400 L 375 500" stroke="black" stroke-width="4" fill="none" class="frontline"></path>
<path d="M 75 500 Q 75 535 66.66666666666666 550 Q 58.33333333333333 565 58.33333333333333 600" stroke="white" stroke-width="9" fill="none" class="backline"></path>
<path d="M 75 500 Q 75 535 66.66666666666666 550 Q 58.33333333333333 565 58.33333333333333 600" stroke="black" stroke-width="4" fill="none" class="frontline"></path>
<path d="M 175 500 Q 175 535 150 550 Q 125 565 125 600" stroke="white" stroke-width="9" fill="none" class="backline"></path>
<path d="M 175 500 Q 175 535 150 550 Q 125 565 125 600" stroke="black" stroke-width="4" fill="none" class="frontline"></path>
<path d="M 275 500 Q 275 535 266.6666666666667 550 Q 258.33333333333337 565 258.33333333333337 600" stroke="white" stroke-width="9" fill="none" class="backline"></path>
<path d="M 275 500 Q 275 535 266.6666666666667 550 Q 258.33333333333337 565 258.33333333333337 600" stroke="black" stroke-width="4" fill="none" class="frontline"></path>
<path d="M 375 500 Q 375 535 350 550 Q 325 565 325 600" stroke="white" stroke-width="9" fill="none" class="backline"></path>
<path d="M 375 500 Q 375 535 350 550 Q 325 565 325 600" stroke="black" stroke-width="4" fill="none" class="frontline"></path>
<path d="M 75 600 L 75 700" stroke="white" stroke-width="9" fill="none" class="backline"></path>
<path d="M 75 600 L 75 700" stroke="black" stroke-width="4" fill="none" class="frontline"></path>
<path d="M 275 600 L 275 700" stroke="white" stroke-width="9" fill="none" class="backline"></path>
<path d="M 275 600 L 275 700" stroke="black" stroke-width="4" fill="none" class="frontline"></path>
<path d="M 375 600 L 375 700" stroke="white" stroke-width="9" fill="none" class="backline"></path>
<path d="M 375 600 L 375 700" stroke="black" stroke-width="4" fill="none" class="frontline"></path>
<path d="M 75 700 L 75 800" stroke="white" stroke-width="9" fill="none" class="backline"></path>
<path d="M 75 700 L 75 800" stroke="black" stroke-width="4" fill="none" class="frontline"></path>
<path d="M 158.33333333333331 700 L 175 800" stroke="white" stroke-width="9" fill="none" class="backline"></path>
<path d="M 158.33333333333331 700 L 175 800" stroke="black" stroke-width="4" fill="none" class="frontline"></path>
<path d="M 275 700 L 275 800" stroke="white" stroke-width="9" fill="none" class="backline"></path>
<path d="M 275 700 L 275 800" stroke="black" stroke-width="4" fill="none" class="frontline"></path>
<path d="M 341.66666666666663 700 Q 341.66666666666663 710 350 710 Q 358.33333333333337 710 358.33333333333337 700" stroke="white" stroke-width="9" fill="none" class="backline"></path>
<path d="M 341.66666666666663 700 Q 341.66666666666663 710 350 710 Q 358.33333333333337 710 358.33333333333337 700" stroke="black" stroke-width="4" fill="none" class="frontline"></path>
<path d="M 25 800 Q 25 810 41.666666666666664 810 Q 58.33333333333333 810 58.33333333333333 800" stroke="white" stroke-width="9" fill="none" class="backline"></path>
<path d="M 25 800 Q 25 810 41.666666666666664 810 Q 58.33333333333333 810 58.33333333333333 800" stroke="black" stroke-width="4" fill="none" class="frontline"></path>
<path d="M 158.33333333333331 800 Q 158.33333333333334 810 166.66666666666666 810 Q 175 810 175 800" stroke="white" stroke-width="9" fill="none" class="backline"></path>
<path d="M 158.33333333333331 800 Q 158.33333333333334 810 166.66666666666666 810 Q 175 810 175 800" stroke="black" stroke-width="4" fill="none" class="frontline"></path>
<path d="M 275 800 L 275 900" stroke="white" stroke-width="9" fill="none" class="backline"></path>
<path d="M 275 800 L 275 900" stroke="black" stroke-width="4" fill="none" class="frontline"></path>
</g>
<g class="layer2">
<path d="M 58.33333333333333 100 L 58.33333333333333 200" stroke="white" stroke-width="9" fill="none" class="backline"></path>
<path d="M 58.33333333333333 100 L 58.33333333333333 200" stroke="black" stroke-width="4" fill="none" class="frontline"></path>
<path d="M 158.33333333333331 100 L 158.33333333333331 200" stroke="white" stroke-width="9" fill="none" class="backline"></path>
<path d="M 158.33333333333331 100 L 158.33333333333331 200" stroke="black" stroke-width="4" fill="none" class="frontline"></path>
<path d="M 258.33333333333337 100 L 258.33333333333337 200" stroke="white" stroke-width="9" fill="none" class="backline"></path>
<path d="M 258.33333333333337 100 L 258.33333333333337 200" stroke="black" stroke-width="4" fill="none" class="frontline"></path>
<path d="M 358.33333333333337 100 L 358.33333333333337 200" stroke="white" stroke-width="9" fill="none" class="backline"></path>
<path d="M 358.33333333333337 100 L 358.33333333333337 200" stroke="black" stroke-width="4" fill="none" class="frontline"></path>
<path d="M 158.33333333333331 200 L 158.33333333333331 300" stroke="white" stroke-width="9" fill="none" class="backline"></path>
<path d="M 158.33333333333331 200 L 158.33333333333331 300" stroke="black" stroke-width="4" fill="none" class="frontline"></path>
<path d="M 358.33333333333337 200 L 358.33333333333337 300" stroke="white" stroke-width="9" fill="none" class="backline"></path>
<path d="M 358.33333333333337 200 L 358.33333333333337 300" stroke="black" stroke-width="4" fill="none" class="frontline"></path>
<path d="M 58.33333333333333 300 L 58.33333333333333 400" stroke="white" stroke-width="9" fill="none" class="backline"></path>
<path d="M 58.33333333333333 300 L 58.33333333333333 400" stroke="black" stroke-width="4" fill="none" class="frontline"></path>
<path d="M 158.33333333333331 300 L 158.33333333333331 400" stroke="white" stroke-width="9" fill="none" class="backline"></path>
<path d="M 158.33333333333331 300 L 158.33333333333331 400" stroke="black" stroke-width="4" fill="none" class="frontline"></path>
<path d="M 358.33333333333337 300 L 358.33333333333337 400" stroke="white" stroke-width="9" fill="none" class="backline"></path>
<path d="M 358.33333333333337 300 L 358.33333333333337 400" stroke="black" stroke-width="4" fill="none" class="frontline"></path>
<path d="M 158.33333333333331 400 L 158.33333333333331 500" stroke="white" stroke-width="9" fill="none" class="backline"></path>
<path d="M 158.33333333333331 400 L 158.33333333333331 500" stroke="black" stroke-width="4" fill="none" class="frontline"></path>
<path d="M 258.33333333333337 400 L 258.33333333333337 500" stroke="white" stroke-width="9" fill="none" class="backline"></path>
<path d="M 258.33333333333337 400 L 258.33333333333337 500" stroke="black" stroke-width="4" fill="none" class="frontline"></path>
<path d="M 358.33333333333337 400 L 358.33333333333337 500" stroke="white" stroke-width="9" fill="none" class="backline"></path>
<path d="M 358.33333333333337 400 L 358.33333333333337 500" stroke="black" stroke-width="4" fill="none" class="frontline"></path>
<path d="M 58.33333333333333 500 Q 58.33333333333333 535 49.99999999999999 550 Q 41.666666666666664 565 41.666666666666664 600" stroke="white" stroke-width="9" fill="none" class="backline"></path>
<path d="M 58.33333333333333 500 Q 58.33333333333333 535 49.99999999999999 550 Q 41.666666666666664 565 41.666666666666664 600" stroke="black" stroke-width="4" fill="none" class="frontline"></path>
<path d="M 158.33333333333331 500 Q 158.33333333333331 535 166.66666666666666 550 Q 175 565 175 600" stroke="white" stroke-width="9" fill="none" class="backline"></path>
<path d="M 158.33333333333331 500 Q 158.33333333333331 535 166.66666666666666 550 Q 175 565 175 600" stroke="black" stroke-width="4" fill="none" class="frontline"></path>
<path d="M 258.33333333333337 500 Q 258.33333333333337 535 250 550 Q 241.66666666666666 565 241.66666666666666 600" stroke="white" stroke-width="9" fill="none" class="backline"></path>
<path d="M 258.33333333333337 500 Q 258.33333333333337 535 250 550 Q 241.66666666666666 565 241.66666666666666 600" stroke="black" stroke-width="4" fill="none" class="frontline"></path>
<path d="M 358.33333333333337 500 Q 358.33333333333337 535 366.6666666666667 550 Q 375 565 375 600" stroke="white" stroke-width="9" fill="none" class="backline"></path>
<path d="M 358.33333333333337 500 Q 358.33333333333337 535 366.6666666666667 550 Q 375 565 375 600" stroke="black" stroke-width="4" fill="none" class="frontline"></path>
<path d="M 58.33333333333333 600 L 58.33333333333333 700" stroke="white" stroke-width="9" fill="none" class="backline"></path>
<path d="M 58.33333333333333 600 L 58.33333333333333 700" stroke="black" stroke-width="4" fill="none" class="frontline"></path>
<path d="M 258.33333333333337 600 L 258.33333333333337 700" stroke="white" stroke-width="9" fill="none" class="backline"></path>
<path d="M 258.33333333333337 600 L 258.33333333333337 700" stroke="black" stroke-width="4" fill="none" class="frontline"></path>
<path d="M 358.33333333333337 600 L 358.33333333333337 700" stroke="white" stroke-width="9" fill="none" class="backline"></path>
<path d="M 358.33333333333337 600 L 358.33333333333337 700" stroke="black" stroke-width="4" fill="none" class="frontline"></path>
<path d="M 58.33333333333333 700 L 58.33333333333333 800" stroke="white" stroke-width="9" fill="none" class="backline"></path>
<path d="M 58.33333333333333 700 L 58.33333333333333 800" stroke="black" stroke-width="4" fill="none" class="frontline"></path>
<path d="M 175 700 L 158.33333333333331 800" stroke="white" stroke-width="9" fill="none" class="backline"></path>
<path d="M 175 700 L 158.33333333333331 800" stroke="black" stroke-width="4" fill="none" class="frontline"></path>
<path d="M 258.33333333333337 700 L 258.33333333333337 800" stroke="white" stroke-width="9" fill="none" class="backline"></path>
<path d="M 258.33333333333337 700 L 258.33333333333337 800" stroke="black" stroke-width="4" fill="none" class="frontline"></path>
<path d="M 325 700 Q 325 720.0000000000001 350 720 Q 375 720.0000000000001 375 700" stroke="white" stroke-width="9" fill="none" class="backline"></path>
<path d="M 325 700 Q 325 720.0000000000001 350 720 Q 375 720.0000000000001 375 700" stroke="black" stroke-width="4" fill="none" class="frontline"></path>
<path d="M 41.666666666666664 800 Q 41.66666666666667 810 58.333333333333336 810 Q 75 810 75 800" stroke="white" stroke-width="9" fill="none" class="backline"></path>
<path d="M 41.666666666666664 800 Q 41.66666666666667 810 58.333333333333336 810 Q 75 810 75 800" stroke="black" stroke-width="4" fill="none" class="frontline"></path>
<path d="M 125 800 Q 125 810 133.33333333333334 810 Q 141.66666666666669 810 141.66666666666669 800" stroke="white" stroke-width="9" fill="none" class="backline"></path>
<path d="M 125 800 Q 125 810 133.33333333333334 810 Q 141.66666666666669 810 141.66666666666669 800" stroke="black" stroke-width="4" fill="none" class="frontline"></path>
<path d="M 258.33333333333337 800 L 258.33333333333337 900" stroke="white" stroke-width="9" fill="none" class="backline"></path>
<path d="M 258.33333333333337 800 L 258.33333333333337 900" stroke="black" stroke-width="4" fill="none" class="frontline"></path>
</g>
<g class="layer3">
<path d="M 41.666666666666664 100 L 41.666666666666664 200" stroke="white" stroke-width="9" fill="none" class="backline"></path>
<path d="M 41.666666666666664 100 L 41.666666666666664 200" stroke="black" stroke-width="4" fill="none" class="frontline"></path>
<path d="M 141.66666666666669 100 L 141.66666666666669 200" stroke="white" stroke-width="9" fill="none" class="backline"></path>
<path d="M 141.66666666666669 100 L 141.66666666666669 200" stroke="black" stroke-width="4" fill="none" class="frontline"></path>
<path d="M 241.66666666666666 100 L 241.66666666666666 200" stroke="white" stroke-width="9" fill="none" class="backline"></path>
<path d="M 241.66666666666666 100 L 241.66666666666666 200" stroke="black" stroke-width="4" fill="none" class="frontline"></path>
<path d="M 341.66666666666663 100 L 341.66666666666663 200" stroke="white" stroke-width="9" fill="none" class="backline"></path>
<path d="M 341.66666666666663 100 L 341.66666666666663 200" stroke="black" stroke-width="4" fill="none" class="frontline"></path>
<path d="M 41.666666666666664 200 L 41.666666666666664 300" stroke="white" stroke-width="9" fill="none" class="backline"></path>
<path d="M 41.666666666666664 200 L 41.666666666666664 300" stroke="black" stroke-width="4" fill="none" class="frontline"></path>
<path d="M 241.66666666666666 200 L 241.66666666666666 300" stroke="white" stroke-width="9" fill="none" class="backline"></path>
<path d="M 241.66666666666666 200 L 241.66666666666666 300" stroke="black" stroke-width="4" fill="none" class="frontline"></path>
<path d="M 41.666666666666664 300 L 41.666666666666664 400" stroke="white" stroke-width="9" fill="none" class="backline"></path>
<path d="M 41.666666666666664 300 L 41.666666666666664 400" stroke="black" stroke-width="4" fill="none" class="frontline"></path>
<path d="M 141.66666666666669 300 L 141.66666666666669 400" stroke="white" stroke-width="9" fill="none" class="backline"></path>
<path d="M 141.66666666666669 300 L 141.66666666666669 400" stroke="black" stroke-width="4" fill="none" class="frontline"></path>
<path d="M 241.66666666666666 300 L 241.66666666666666 400" stroke="white" stroke-width="9" fill="none" class="backline"></path>
<path d="M 241.66666666666666 300 L 241.66666666666666 400" stroke="black" stroke-width="4" fill="none" class="frontline"></path>
<path d="M 41.666666666666664 400 L 41.666666666666664 500" stroke="white" stroke-width="9" fill="none" class="backline"></path>
<path d="M 41.666666666666664 400 L 41.666666666666664 500" stroke="black" stroke-width="4" fill="none" class="frontline"></path>
<path d="M 241.66666666666666 400 L 241.66666666666666 500" stroke="white" stroke-width="9" fill="none" class="backline"></path>
<path d="M 241.66666666666666 400 L 241.66666666666666 500" stroke="black" stroke-width="4" fill="none" class="frontline"></path>
<path d="M 341.66666666666663 400 L 341.66666666666663 500" stroke="white" stroke-width="9" fill="none" class="backline"></path>
<path d="M 341.66666666666663 400 L 341.66666666666663 500" stroke="black" stroke-width="4" fill="none" class="frontline"></path>
<path d="M 41.666666666666664 500 Q 41.666666666666664 535 33.33333333333333 550 Q 25 565 25 600" stroke="white" stroke-width="9" fill="none" class="backline"></path>
<path d="M 41.666666666666664 500 Q 41.666666666666664 535 33.33333333333333 550 Q 25 565 25 600" stroke="black" stroke-width="4" fill="none" class="frontline"></path>
<path d="M 141.66666666666669 500 Q 141.66666666666669 535 150 550 Q 158.33333333333331 565 158.33333333333331 600" stroke="white" stroke-width="9" fill="none" class="backline"></path>
<path d="M 141.66666666666669 500 Q 141.66666666666669 535 150 550 Q 158.33333333333331 565 158.33333333333331 600" stroke="black" stroke-width="4" fill="none" class="frontline"></path>
<path d="M 241.66666666666666 500 Q 241.66666666666666 535 233.33333333333331 550 Q 225 565 225 600" stroke="white" stroke-width="9" fill="none" class="backline"></path>
<path d="M 241.66666666666666 500 Q 241.66666666666666 535 233.33333333333331 550 Q 225 565 225 600" stroke="black" stroke-width="4" fill="none" class="frontline"></path>
<path d="M 341.66666666666663 500 Q 341.66666666666663 535 350 550 Q 358.33333333333337 565 358.33333333333337 600" stroke="white" stroke-width="9" fill="none" class="backline"></path>
<path d="M 341.66666666666663 500 Q 341.66666666666663 535 350 550 Q 358.33333333333337 565 358.33333333333337 600" stroke="black" stroke-width="4" fill="none" class="frontline"></path>
<path d="M 41.666666666666664 600 L 41.666666666666664 700" stroke="white" stroke-width="9" fill="none" class="backline"></path>
<path d="M 41.666666666666664 600 L 41.666666666666664 700" stroke="black" stroke-width="4" fill="none" class="frontline"></path>
<path d="M 141.66666666666669 600 L 141.66666666666669 700" stroke="white" stroke-width="9" fill="none" class="backline"></path>
<path d="M 141.66666666666669 600 L 141.66666666666669 700" stroke="black" stroke-width="4" fill="none" class="frontline"></path>
<path d="M 341.66666666666663 600 L 341.66666666666663 700" stroke="white" stroke-width="9" fill="none" class="backline"></path>
<path d="M 341.66666666666663 600 L 341.66666666666663 700" stroke="black" stroke-width="4" fill="none" class="frontline"></path>
<path d="M 41.666666666666664 700 L 25 800" stroke="white" stroke-width="9" fill="none" class="backline"></path>
<path d="M 41.666666666666664 700 L 25 800" stroke="black" stroke-width="4" fill="none" class="frontline"></path>
<path d="M 141.66666666666669 700 L 141.66666666666669 800" stroke="white" stroke-width="9" fill="none" class="backline"></path>
<path d="M 141.66666666666669 700 L 141.66666666666669 800" stroke="black" stroke-width="4" fill="none" class="frontline"></path>
<path d="M 241.66666666666666 700 L 241.66666666666666 800" stroke="white" stroke-width="9" fill="none" class="backline"></path>
<path d="M 241.66666666666666 700 L 241.66666666666666 800" stroke="black" stroke-width="4" fill="none" class="frontline"></path>
<path d="M 241.66666666666666 800 L 241.66666666666666 900" stroke="white" stroke-width="9" fill="none" class="backline"></path>
<path d="M 241.66666666666666 800 L 241.66666666666666 900" stroke="black" stroke-width="4" fill="none" class="frontline"></path>
</g>
<g class="layer4">
<path d="M 25 100 L 25 200" stroke="white" stroke-width="9" fill="none" class="backline"></path>
<path d="M 25 100 L 25 200" stroke="black" stroke-width="4" fill="none" class="frontline"></path>
<path d="M 125 100 L 125 200" stroke="white" stroke-width="9" fill="none" class="backline"></path>
<path d="M 125 100 L 125 200" stroke="black" stroke-width="4" fill="none" class="frontline"></path>
<path d="M 225 100 L 225 200" stroke="white" stroke-width="9" fill="none" class="backline"></path>
<path d="M 225 100 L 225 200" stroke="black" stroke-width="4" fill="none" class="frontline"></path>
<path d="M 325 100 L 325 200" stroke="white" stroke-width="9" fill="none" class="backline"></path>
<path d="M 325 100 L 325 200" stroke="black" stroke-width="4" fill="none" class="frontline"></path>
<path d="M 25 200 L 25 300" stroke="white" stroke-width="9" fill="none" class="backline"></path>
<path d="M 25 200 L 25 300" stroke="black" stroke-width="4" fill="none" class="frontline"></path>
<path d="M 225 200 L 225 300" stroke="white" stroke-width="9" fill="none" class="backline"></path>
<path d="M 225 200 L 225 300" stroke="black" stroke-width="4" fill="none" class="frontline"></path>
<path d="M 25 300 L 25 400" stroke="white" stroke-width="9" fill="none" class="backline"></path>
<path d="M 25 300 L 25 400" stroke="black" stroke-width="4" fill="none" class="frontline"></path>
<path d="M 125 300 L 125 400" stroke="white" stroke-width="9" fill="none" class="backline"></path>
<path d="M 125 300 L 125 400" stroke="black" stroke-width="4" fill="none" class="frontline"></path>
<path d="M 225 300 L 225 400" stroke="white" stroke-width="9" fill="none" class="backline"></path>
<path d="M 225 300 L 225 400" stroke="black" stroke-width="4" fill="none" class="frontline"></path>
<path d="M 25 400 L 25 500" stroke="white" stroke-width="9" fill="none" class="backline"></path>
<path d="M 25 400 L 25 500" stroke="black" stroke-width="4" fill="none" class="frontline"></path>
<path d="M 225 400 L 225 500" stroke="white" stroke-width="9" fill="none" class="backline"></path>
<path d="M 225 400 L 225 500" stroke="black" stroke-width="4" fill="none" class="frontline"></path>
<path d="M 325 400 L 325 500" stroke="white" stroke-width="9" fill="none" class="backline"></path>
<path d="M 325 400 L 325 500" stroke="black" stroke-width="4" fill="none" class="frontline"></path>
<path d="M 25 500 Q 25 535 50 550 Q 75 565 75 600" stroke="white" stroke-width="9" fill="none" class="backline"></path>
<path d="M 25 500 Q 25 535 50 550 Q 75 565 75 600" stroke="black" stroke-width="4" fill="none" class="frontline"></path>
<path d="M 125 500 Q 125 535 133.33333333333334 550 Q 141.66666666666669 565 141.66666666666669 600" stroke="white" stroke-width="9" fill="none" class="backline"></path>
<path d="M 125 500 Q 125 535 133.33333333333334 550 Q 141.66666666666669 565 141.66666666666669 600" stroke="black" stroke-width="4" fill="none" class="frontline"></path>
<path d="M 225 500 Q 225 535 250 550 Q 275 565 275 600" stroke="white" stroke-width="9" fill="none" class="backline"></path>
<path d="M 225 500 Q 225 535 250 550 Q 275 565 275 600" stroke="black" stroke-width="4" fill="none" class="frontline"></path>
<path d="M 325 500 Q 325 535 333.3333333333333 550 Q 341.66666666666663 565 341.66666666666663 600" stroke="white" stroke-width="9" fill="none" class="backline"></path>
<path d="M 325 500 Q 325 535 333.3333333333333 550 Q 341.66666666666663 565 341.66666666666663 600" stroke="black" stroke-width="4" fill="none" class="frontline"></path>
<path d="M 25 600 L 25 700" stroke="white" stroke-width="9" fill="none" class="backline"></path>
<path d="M 25 600 L 25 700" stroke="black" stroke-width="4" fill="none" class="frontline"></path>
<path d="M 125 600 L 125 700" stroke="white" stroke-width="9" fill="none" class="backline"></path>
<path d="M 125 600 L 125 700" stroke="black" stroke-width="4" fill="none" class="frontline"></path>
<path d="M 325 600 L 325 700" stroke="white" stroke-width="9" fill="none" class="backline"></path>
<path d="M 325 600 L 325 700" stroke="black" stroke-width="4" fill="none" class="frontline"></path>
<path d="M 25 700 L 41.666666666666664 800" stroke="white" stroke-width="9" fill="none" class="backline"></path>
<path d="M 25 700 L 41.666666666666664 800" stroke="black" stroke-width="4" fill="none" class="frontline"></path>
<path d="M 125 700 L 125 800" stroke="white" stroke-width="9" fill="none" class="backline"></path>
<path d="M 125 700 L 125 800" stroke="black" stroke-width="4" fill="none" class="frontline"></path>
<path d="M 225 700 L 225 800" stroke="white" stroke-width="9" fill="none" class="backline"></path>
<path d="M 225 700 L 225 800" stroke="black" stroke-width="4" fill="none" class="frontline"></path>
<path d="M 225 800 L 225 900" stroke="white" stroke-width="9" fill="none" class="backline"></path>
<path d="M 225 800 L 225 900" stroke="black" stroke-width="4" fill="none" class="frontline"></path>
</g>
<g class="layer5">
<path d="M 58.33333333333333 300 Q 58.33333333333333 284.99999999999994 91.66666666666666 284.99999999999994 Q 125 284.99999999999994 125 300" stroke="white" stroke-width="9" fill="none" class="backline"></path>
<path d="M 58.33333333333333 300 Q 58.33333333333333 284.99999999999994 91.66666666666666 284.99999999999994 Q 125 284.99999999999994 125 300" stroke="black" stroke-width="4" fill="none" class="frontline"></path>
<path d="M 258.33333333333337 300 Q 258.33333333333337 280 295.83333333333337 250 Q 338.3333333333333 220.00000000000003 341.66666666666663 200" stroke="white" stroke-width="9" fill="none" class="backline"></path>
<path d="M 258.33333333333337 300 Q 258.33333333333337 280 295.83333333333337 250 Q 338.3333333333333 220.00000000000003 341.66666666666663 200" stroke="black" stroke-width="4" fill="none" class="frontline"></path>
<path d="M 258.33333333333337 400 Q 258.33333333333337 380 295.83333333333337 350 Q 338.3333333333333 320 341.66666666666663 300" stroke="white" stroke-width="9" fill="none" class="backline"></path>
<path d="M 258.33333333333337 400 Q 258.33333333333337 380 295.83333333333337 350 Q 338.3333333333333 320 341.66666666666663 300" stroke="black" stroke-width="4" fill="none" class="frontline"></path>
<path d="M 58.33333333333333 500 Q 58.33333333333333 480 95.83333333333333 450 Q 138.33333333333334 420 141.66666666666669 400" stroke="white" stroke-width="9" fill="none" class="backline"></path>
<path d="M 58.33333333333333 500 Q 58.33333333333333 480 95.83333333333333 450 Q 138.33333333333334 420 141.66666666666669 400" stroke="black" stroke-width="4" fill="none" class="frontline"></path>
<path d="M 158.33333333333331 700 Q 158.33333333333331 680.0000000000001 195.83333333333331 650 Q 238.33333333333334 620.0000000000001 241.66666666666666 600" stroke="white" stroke-width="9" fill="none" class="backline"></path>
<path d="M 158.33333333333331 700 Q 158.33333333333331 680.0000000000001 195.83333333333331 650 Q 238.33333333333334 620.0000000000001 241.66666666666666 600" stroke="black" stroke-width="4" fill="none" class="frontline"></path>
</g>
<g class="layer6">
<path d="M 75 300 Q 75.00000000000001 280 100 250 Q 125 220.00000000000003 125 200" stroke="white" stroke-width="9" fill="none" class="backline"></path>
<path d="M 75 300 Q 75.00000000000001 280 100 250 Q 125 220.00000000000003 125 200" stroke="black" stroke-width="4" fill="none" class="frontline"></path>
<path d="M 275 300 Q 275 284.99999999999994 308.3333333333333 284.99999999999994 Q 341.66666666666663 284.99999999999994 341.66666666666663 300" stroke="white" stroke-width="9" fill="none" class="backline"></path>
<path d="M 275 300 Q 275 284.99999999999994 308.3333333333333 284.99999999999994 Q 341.66666666666663 284.99999999999994 341.66666666666663 300" stroke="black" stroke-width="4" fill="none" class="frontline"></path>
<path d="M 275 400 Q 275 384.99999999999994 308.3333333333333 385 Q 341.66666666666663 384.99999999999994 341.66666666666663 400" stroke="white" stroke-width="9" fill="none" class="backline"></path>
<path d="M 275 400 Q 275 384.99999999999994 308.3333333333333 385 Q 341.66666666666663 384.99999999999994 341.66666666666663 400" stroke="black" stroke-width="4" fill="none" class="frontline"></path>
<path d="M 75 500 Q 75 484.99999999999994 108.33333333333333 484.99999999999994 Q 141.66666666666666 484.99999999999994 141.66666666666669 500" stroke="white" stroke-width="9" fill="none" class="backline"></path>
<path d="M 75 500 Q 75 484.99999999999994 108.33333333333333 484.99999999999994 Q 141.66666666666666 484.99999999999994 141.66666666666669 500" stroke="black" stroke-width="4" fill="none" class="frontline"></path>
<path d="M 175 700 Q 175 685 208.33333333333334 685 Q 241.66666666666666 685 241.66666666666666 700" stroke="white" stroke-width="9" fill="none" class="backline"></path>
<path d="M 175 700 Q 175 685 208.33333333333334 685 Q 241.66666666666666 685 241.66666666666666 700" stroke="black" stroke-width="4" fill="none" class="frontline"></path>
</g>
<g class="layer7">
<path d="M 58.33333333333333 200 Q 58.33333333333333 220.00000000000003 100 250 Q 141.66666666666669 280 141.66666666666669 300" stroke="white" stroke-width="9" fill="none" class="backline"></path>
<path d="M 58.33333333333333 200 Q 58.33333333333333 220.00000000000003 100 250 Q 141.66666666666669 280 141.66666666666669 300" stroke="black" stroke-width="4" fill="none" class="frontline"></path>
<path d="M 258.33333333333337 200 Q 258.33333333333337 215 291.66666666666663 215 Q 324.99999999999994 215 325 200" stroke="white" stroke-width="9" fill="none" class="backline"></path>
<path d="M 258.33333333333337 200 Q 258.33333333333337 215 291.66666666666663 215 Q 324.99999999999994 215 325 200" stroke="black" stroke-width="4" fill="none" class="frontline"></path>
<path d="M 258.33333333333337 300 Q 258.33333333333337 315 291.66666666666663 314.99999999999994 Q 324.99999999999994 315 325 300" stroke="white" stroke-width="9" fill="none" class="backline"></path>
<path d="M 258.33333333333337 300 Q 258.33333333333337 315 291.66666666666663 314.99999999999994 Q 324.99999999999994 315 325 300" stroke="black" stroke-width="4" fill="none" class="frontline"></path>
<path d="M 58.33333333333333 400 Q 58.33333333333333 415.00000000000006 91.66666666666666 415.00000000000006 Q 125 415.00000000000006 125 400" stroke="white" stroke-width="9" fill="none" class="backline"></path>
<path d="M 58.33333333333333 400 Q 58.33333333333333 415.00000000000006 91.66666666666666 415.00000000000006 Q 125 415.00000000000006 125 400" stroke="black" stroke-width="4" fill="none" class="frontline"></path>
<path d="M 158.33333333333331 600 Q 158.33333333333331 615 191.66666666666663 615 Q 225 615 225 600" stroke="white" stroke-width="9" fill="none" class="backline"></path>
<path d="M 158.33333333333331 600 Q 158.33333333333331 615 191.66666666666663 615 Q 225 615 225 600" stroke="black" stroke-width="4" fill="none" class="frontline"></path>
</g>
<g class="layer8">
<path d="M 75 200 Q 75 215 108.33333333333333 215 Q 141.66666666666666 215 141.66666666666669 200" stroke="white" stroke-width="9" fill="none" class="backline"></path>
<path d="M 75 200 Q 75 215 108.33333333333333 215 Q 141.66666666666666 215 141.66666666666669 200" stroke="black" stroke-width="4" fill="none" class="frontline"></path>
<path d="M 275 200 Q 275 220.00000000000003 300 250 Q 325 280 325 300" stroke="white" stroke-width="9" fill="none" class="backline"></path>
<path d="M 275 200 Q 275 220.00000000000003 300 250 Q 325 280 325 300" stroke="black" stroke-width="4" fill="none" class="frontline"></path>
<path d="M 275 300 Q 275 320 300 350 Q 325 380 325 400" stroke="white" stroke-width="9" fill="none" class="backline"></path>
<path d="M 275 300 Q 275 320 300 350 Q 325 380 325 400" stroke="black" stroke-width="4" fill="none" class="frontline"></path>
<path d="M 75 400 Q 75.00000000000001 420 100 450 Q 125 480 125 500" stroke="white" stroke-width="9" fill="none" class="backline"></path>
<path d="M 75 400 Q 75.00000000000001 420 100 450 Q 125 480 125 500" stroke="black" stroke-width="4" fill="none" class="frontline"></path>
<path d="M 175 600 Q 175.00000000000003 620.0000000000001 200 650 Q 225 680.0000000000001 225 700" stroke="white" stroke-width="9" fill="none" class="backline"></path>
<path d="M 175 600 Q 175.00000000000003 620.0000000000001 200 650 Q 225 680.0000000000001 225 700" stroke="black" stroke-width="4" fill="none" class="frontline"></path>
</g>
</svg>