<?xml version="1.0" encoding="UTF-8" standalone="no"?>
<!DOCTYPE svg PUBLIC "-//W3C//DTD SVG 1.1//EN" "http://www.w3.org/Graphics/SVG/1.1/DTD/svg11.dtd">
<svg xmlns="http://www.w3.org/2000/svg" viewBox="0 0 400 1000">
        <defs xmlns="http://www.w3.org/2000/svg">
            <style xmlns="http://www.w3.org/2000/svg" type="text/css">
                
    .frontline{stroke:black;stroke-width:4;fill:none}
    .backline{stroke:white;stroke-width:9;fill:none}

    /* .frontline:hover{stroke:blue;stroke-width:5.5;} */
    
    .frontline.circultline9{
        stroke:red;stroke-width:6.5;
    }
    .frontline.circultline1{
        stroke:#bd0086;
    }
    .frontline.circultline4{
        stroke:#8d00cb;
    }
    
            </style>
        </defs>
        <g class="layer1">
<path d="M 41.666666666666664 200 Q 41.66666666666667 190 49.99999999999999 190 Q 58.33333333333333 190 58.33333333333333 200" class="backline circultline1 line1"></path>
<path d="M 41.666666666666664 200 Q 41.66666666666667 190 49.99999999999999 190 Q 58.33333333333333 190 58.33333333333333 200" class="frontline circultline1 line1"></path>
<path d="M 158.33333333333331 200 Q 158.33333333333334 190 166.66666666666666 190 Q 175 190 175 200" class="backline circultline4 line3"></path>
<path d="M 158.33333333333331 200 Q 158.33333333333334 190 166.66666666666666 190 Q 175 190 175 200" class="frontline circultline4 line3"></path>
<path d="M 241.66666666666666 200 Q 241.66666666666666 190 258.33333333333337 190 Q 275 190 275 200" class="backline circultline1 line5"></path>
<path d="M 241.66666666666666 200 Q 241.66666666666666 190 258.33333333333337 190 Q 275 190 275 200" class="frontline circultline1 line5"></path>
<path d="M 375 100 L 375 200" class="backline circultline10 line9"></path>
<path d="M 375 100 L 375 200" class="frontline circultline10 line9"></path>
<path d="M 75 200 L 75 300" class="backline circultline1 line13"></path>
<path d="M 75 200 L 75 300" class="frontline circultline1 line13"></path>
<path d="M 175 200 L 175 300" class="backline circultline4 line17"></path>
<path d="M 175 200 L 175 300" class="frontline circultline4 line17"></path>
<path d="M 275 200 L 275 300" class="backline circultline1 line21"></path>
<path d="M 275 200 L 275 300" class="frontline circultline1 line21"></path>
<path d="M 375 200 L 375 300" class="backline circultline10 line25"></path>
<path d="M 375 200 L 375 300" class="frontline circultline10 line25"></path>
<path d="M 175 300 L 175 400" class="backline circultline4 line33"></path>
<path d="M 175 300 L 175 400" class="frontline circultline4 line33"></path>
<path d="M 375 300 L 375 400" class="backline circultline10 line41"></path>
<path d="M 375 300 L 375 400" class="frontline circultline10 line41"></path>
<path d="M 175 400 L 175 500" class="backline circultline4 line49"></path>
<path d="M 175 400 L 175 500" class="frontline circultline4 line49"></path>
<path d="M 375 400 L 375 500" class="backline circultline10 line57"></path>
<path d="M 375 400 L 375 500" class="frontline circultline10 line57"></path>
<path d="M 75 500 Q 75 535 66.66666666666666 550 Q 58.33333333333333 565 58.33333333333333 600" class="backline circultline1 line61"></path>
<path d="M 75 500 Q 75 535 66.66666666666666 550 Q 58.33333333333333 565 58.33333333333333 600" class="frontline circultline1 line61"></path>
<path d="M 175 500 Q 175 535 150 550 Q 125 565 125 600" class="backline circultline4 line65"></path>
<path d="M 175 500 Q 175 535 150 550 Q 125 565 125 600" class="frontline circultline4 line65"></path>
<path d="M 258.33333333333337 500 Q 258.33333333333337 535 258.33333333333337 550 Q 258.33333333333337 565 258.33333333333337 600" class="backline circultline9 line68"></path>
<path d="M 258.33333333333337 500 Q 258.33333333333337 535 258.33333333333337 550 Q 258.33333333333337 565 258.33333333333337 600" class="frontline circultline9 line68"></path>
<path d="M 358.33333333333337 500 Q 358.33333333333337 535 366.6666666666667 550 Q 375 565 375 600" class="backline circultline9 line72"></path>
<path d="M 358.33333333333337 500 Q 358.33333333333337 535 366.6666666666667 550 Q 375 565 375 600" class="frontline circultline9 line72"></path>
<path d="M 25 600 Q 25 635 33.33333333333333 650 Q 41.666666666666664 665 41.666666666666664 700" class="backline circultline1 line74"></path>
<path d="M 25 600 Q 25 635 33.33333333333333 650 Q 41.666666666666664 665 41.666666666666664 700" class="frontline circultline1 line74"></path>
<path d="M 125 600 Q 125 635 150 650 Q 175 665 175 700" class="backline circultline4 line78"></path>
<path d="M 125 600 Q 125 635 150 650 Q 175 665 175 700" class="frontline circultline4 line78"></path>
<path d="M 275 600 Q 275 635 275 650 Q 275 665 275 700" class="backline circultline10 line85"></path>
<path d="M 275 600 Q 275 635 275 650 Q 275 665 275 700" class="frontline circultline10 line85"></path>
<path d="M 375 600 Q 375 635 366.6666666666667 650 Q 358.33333333333337 665 358.33333333333337 700" class="backline circultline9 line89"></path>
<path d="M 375 600 Q 375 635 366.6666666666667 650 Q 358.33333333333337 665 358.33333333333337 700" class="frontline circultline9 line89"></path>
<path d="M 75 700 L 75 800" class="backline circultline1 line93"></path>
<path d="M 75 700 L 75 800" class="frontline circultline1 line93"></path>
<path d="M 275 700 L 275 800" class="backline circultline10 line101"></path>
<path d="M 275 700 L 275 800" class="frontline circultline10 line101"></path>
<path d="M 341.66666666666663 700 Q 341.66666666666663 710 358.3333333333333 710 Q 375 710 375 700" class="backline circultline10 line103"></path>
<path d="M 341.66666666666663 700 Q 341.66666666666663 710 358.3333333333333 710 Q 375 710 375 700" class="frontline circultline10 line103"></path>
<path d="M 58.33333333333333 800 Q 58.33333333333333 810 66.66666666666666 810 Q 75 810 75 800" class="backline circultline1 line105"></path>
<path d="M 58.33333333333333 800 Q 58.33333333333333 810 66.66666666666666 810 Q 75 810 75 800" class="frontline circultline1 line105"></path>
<path d="M 141.66666666666669 800 Q 141.66666666666669 810 150 810 Q 158.33333333333334 810 158.33333333333331 800" class="backline circultline1 line107"></path>
<path d="M 141.66666666666669 800 Q 141.66666666666669 810 150 810 Q 158.33333333333334 810 158.33333333333331 800" class="frontline circultline1 line107"></path>
<path d="M 275 800 L 275 900" class="backline circultline10 line111"></path>
<path d="M 275 800 L 275 900" class="frontline circultline10 line111"></path>
</g>
<g class="layer2">
<path d="M 25 200 Q 25 180 50 180.00000000000003 Q 75.00000000000001 180 75 200" class="backline circultline1 line0"></path>
<path d="M 25 200 Q 25 180 50 180.00000000000003 Q 75.00000000000001 180 75 200" class="frontline circultline1 line0"></path>
<path d="M 125 200 Q 125 190 133.33333333333334 190 Q 141.66666666666669 190 141.66666666666669 200" class="backline circultline1 line2"></path>
<path d="M 125 200 Q 125 190 133.33333333333334 190 Q 141.66666666666669 190 141.66666666666669 200" class="frontline circultline1 line2"></path>
<path d="M 225 200 Q 225 190 241.66666666666666 190 Q 258.33333333333337 190 258.33333333333337 200" class="backline circultline4 line4"></path>
<path d="M 225 200 Q 225 190 241.66666666666666 190 Q 258.33333333333337 190 258.33333333333337 200" class="frontline circultline4 line4"></path>
<path d="M 358.33333333333337 100 L 358.33333333333337 200" class="backline circultline9 line8"></path>
<path d="M 358.33333333333337 100 L 358.33333333333337 200" class="frontline circultline9 line8"></path>
<path d="M 58.33333333333333 200 L 58.33333333333333 300" class="backline circultline1 line12"></path>
<path d="M 58.33333333333333 200 L 58.33333333333333 300" class="frontline circultline1 line12"></path>
<path d="M 158.33333333333331 200 L 158.33333333333331 300" class="backline circultline4 line16"></path>
<path d="M 158.33333333333331 200 L 158.33333333333331 300" class="frontline circultline4 line16"></path>
<path d="M 258.33333333333337 200 L 258.33333333333337 300" class="backline circultline4 line20"></path>
<path d="M 258.33333333333337 200 L 258.33333333333337 300" class="frontline circultline4 line20"></path>
<path d="M 358.33333333333337 200 L 358.33333333333337 300" class="backline circultline9 line24"></path>
<path d="M 358.33333333333337 200 L 358.33333333333337 300" class="frontline circultline9 line24"></path>
<path d="M 158.33333333333331 300 L 158.33333333333331 400" class="backline circultline4 line32"></path>
<path d="M 158.33333333333331 300 L 158.33333333333331 400" class="frontline circultline4 line32"></path>
<path d="M 358.33333333333337 300 L 358.33333333333337 400" class="backline circultline9 line40"></path>
<path d="M 358.33333333333337 300 L 358.33333333333337 400" class="frontline circultline9 line40"></path>
<path d="M 158.33333333333331 400 L 158.33333333333331 500" class="backline circultline4 line48"></path>
<path d="M 158.33333333333331 400 L 158.33333333333331 500" class="frontline circultline4 line48"></path>
<path d="M 358.33333333333337 400 L 358.33333333333337 500" class="backline circultline9 line56"></path>
<path d="M 358.33333333333337 400 L 358.33333333333337 500" class="frontline circultline9 line56"></path>
<path d="M 58.33333333333333 500 Q 58.33333333333333 535 49.99999999999999 550 Q 41.666666666666664 565 41.666666666666664 600" class="backline circultline1 line60"></path>
<path d="M 58.33333333333333 500 Q 58.33333333333333 535 49.99999999999999 550 Q 41.666666666666664 565 41.666666666666664 600" class="frontline circultline1 line60"></path>
<path d="M 158.33333333333331 500 Q 158.33333333333331 535 166.66666666666666 550 Q 175 565 175 600" class="backline circultline4 line64"></path>
<path d="M 158.33333333333331 500 Q 158.33333333333331 535 166.66666666666666 550 Q 175 565 175 600" class="frontline circultline4 line64"></path>
<path d="M 275 500 Q 275 535 275 550 Q 275 565 275 600" class="backline circultline10 line69"></path>
<path d="M 275 500 Q 275 535 275 550 Q 275 565 275 600" class="frontline circultline10 line69"></path>
<path d="M 375 500 Q 375 535 366.6666666666667 550 Q 358.33333333333337 565 358.33333333333337 600" class="backline circultline10 line73"></path>
<path d="M 375 500 Q 375 535 366.6666666666667 550 Q 358.33333333333337 565 358.33333333333337 600" class="frontline circultline10 line73"></path>
<path d="M 41.666666666666664 600 Q 41.666666666666664 635 49.999999999999986 650 Q 58.33333333333333 665 58.33333333333333 700" class="backline circultline1 line75"></path>
<path d="M 41.666666666666664 600 Q 41.666666666666664 635 49.999999999999986 650 Q 58.33333333333333 665 58.33333333333333 700" class="frontline circultline1 line75"></path>
<path d="M 141.66666666666669 600 Q 141.66666666666669 635 133.33333333333334 650 Q 125 665 125 700" class="backline circultline1 line79"></path>
<path d="M 141.66666666666669 600 Q 141.66666666666669 635 133.33333333333334 650 Q 125 665 125 700" class="frontline circultline1 line79"></path>
<path d="M 258.33333333333337 600 Q 258.33333333333337 635 258.33333333333337 650 Q 258.33333333333337 665 258.33333333333337 700" class="backline circultline9 line84"></path>
<path d="M 258.33333333333337 600 Q 258.33333333333337 635 258.33333333333337 650 Q 258.33333333333337 665 258.33333333333337 700" class="frontline circultline9 line84"></path>
<path d="M 358.33333333333337 600 Q 358.33333333333337 635 366.6666666666667 650 Q 375 665 375 700" class="backline circultline10 line88"></path>
<path d="M 358.33333333333337 600 Q 358.33333333333337 635 366.6666666666667 650 Q 375 665 375 700" class="frontline circultline10 line88"></path>
<path d="M 58.33333333333333 700 L 58.33333333333333 800" class="backline circultline1 line92"></path>
<path d="M 58.33333333333333 700 L 58.33333333333333 800" class="frontline circultline1 line92"></path>
<path d="M 258.33333333333337 700 L 258.33333333333337 800" class="backline circultline9 line100"></path>
<path d="M 258.33333333333337 700 L 258.33333333333337 800" class="frontline circultline9 line100"></path>
<path d="M 325 700 Q 325.00000000000006 710 341.6666666666667 710 Q 358.33333333333337 710 358.33333333333337 700" class="backline circultline9 line102"></path>
<path d="M 325 700 Q 325.00000000000006 710 341.6666666666667 710 Q 358.33333333333337 710 358.33333333333337 700" class="frontline circultline9 line102"></path>
<path d="M 25 800 Q 25 810 33.33333333333333 810 Q 41.66666666666667 810 41.666666666666664 800" class="backline circultline1 line104"></path>
<path d="M 25 800 Q 25 810 33.33333333333333 810 Q 41.66666666666667 810 41.666666666666664 800" class="frontline circultline1 line104"></path>
<path d="M 125 800 Q 125 820.0000000000001 150.00000000000003 820.0000000000001 Q 175.00000000000003 820.0000000000001 175 800" class="backline circultline1 line106"></path>
<path d="M 125 800 Q 125 820.0000000000001 150.00000000000003 820.0000000000001 Q 175.00000000000003 820.0000000000001 175 800" class="frontline circultline1 line106"></path>
<path d="M 258.33333333333337 800 L 258.33333333333337 900" class="backline circultline9 line110"></path>
<path d="M 258.33333333333337 800 L 258.33333333333337 900" class="frontline circultline9 line110"></path>
</g>
<g class="layer3">
<path d="M 341.66666666666663 100 L 341.66666666666663 200" class="backline circultline1 line7"></path>
<path d="M 341.66666666666663 100 L 341.66666666666663 200" class="frontline circultline1 line7"></path>
<path d="M 41.666666666666664 200 L 41.666666666666664 300" class="backline circultline1 line11"></path>
<path d="M 41.666666666666664 200 L 41.666666666666664 300" class="frontline circultline1 line11"></path>
<path d="M 141.66666666666669 200 L 141.66666666666669 300" class="backline circultline1 line15"></path>
<path d="M 141.66666666666669 200 L 141.66666666666669 300" class="frontline circultline1 line15"></path>
<path d="M 241.66666666666666 200 L 241.66666666666666 300" class="backline circultline1 line19"></path>
<path d="M 241.66666666666666 200 L 241.66666666666666 300" class="frontline circultline1 line19"></path>
<path d="M 341.66666666666663 200 L 341.66666666666663 300" class="backline circultline1 line23"></path>
<path d="M 341.66666666666663 200 L 341.66666666666663 300" class="frontline circultline1 line23"></path>
<path d="M 41.666666666666664 300 L 41.666666666666664 400" class="backline circultline1 line27"></path>
<path d="M 41.666666666666664 300 L 41.666666666666664 400" class="frontline circultline1 line27"></path>
<path d="M 241.66666666666666 300 L 241.66666666666666 400" class="backline circultline1 line35"></path>
<path d="M 241.66666666666666 300 L 241.66666666666666 400" class="frontline circultline1 line35"></path>
<path d="M 41.666666666666664 400 L 41.666666666666664 500" class="backline circultline1 line43"></path>
<path d="M 41.666666666666664 400 L 41.666666666666664 500" class="frontline circultline1 line43"></path>
<path d="M 241.66666666666666 400 L 241.66666666666666 500" class="backline circultline1 line51"></path>
<path d="M 241.66666666666666 400 L 241.66666666666666 500" class="frontline circultline1 line51"></path>
<path d="M 41.666666666666664 500 Q 41.666666666666664 535 33.33333333333333 550 Q 25 565 25 600" class="backline circultline1 line59"></path>
<path d="M 41.666666666666664 500 Q 41.666666666666664 535 33.33333333333333 550 Q 25 565 25 600" class="frontline circultline1 line59"></path>
<path d="M 141.66666666666669 500 Q 141.66666666666669 535 150 550 Q 158.33333333333331 565 158.33333333333331 600" class="backline circultline1 line63"></path>
<path d="M 141.66666666666669 500 Q 141.66666666666669 535 150 550 Q 158.33333333333331 565 158.33333333333331 600" class="frontline circultline1 line63"></path>
<path d="M 241.66666666666666 500 Q 241.66666666666666 535 233.33333333333331 550 Q 225 565 225 600" class="backline circultline1 line67"></path>
<path d="M 241.66666666666666 500 Q 241.66666666666666 535 233.33333333333331 550 Q 225 565 225 600" class="frontline circultline1 line67"></path>
<path d="M 341.66666666666663 500 Q 341.66666666666663 535 341.66666666666663 550 Q 341.66666666666663 565 341.66666666666663 600" class="backline circultline10 line71"></path>
<path d="M 341.66666666666663 500 Q 341.66666666666663 535 341.66666666666663 550 Q 341.66666666666663 565 341.66666666666663 600" class="frontline circultline10 line71"></path>
<path d="M 58.33333333333333 600 Q 58.33333333333333 635 66.66666666666666 650 Q 75 665 75 700" class="backline circultline1 line76"></path>
<path d="M 58.33333333333333 600 Q 58.33333333333333 635 66.66666666666666 650 Q 75 665 75 700" class="frontline circultline1 line76"></path>
<path d="M 158.33333333333331 600 Q 158.33333333333331 635 150 650 Q 141.66666666666669 665 141.66666666666669 700" class="backline circultline1 line80"></path>
<path d="M 158.33333333333331 600 Q 158.33333333333331 635 150 650 Q 141.66666666666669 665 141.66666666666669 700" class="frontline circultline1 line80"></path>
<path d="M 225 600 Q 225 635 233.33333333333331 650 Q 241.66666666666666 665 241.66666666666666 700" class="backline circultline1 line82"></path>
<path d="M 225 600 Q 225 635 233.33333333333331 650 Q 241.66666666666666 665 241.66666666666666 700" class="frontline circultline1 line82"></path>
<path d="M 325 600 Q 325 635 325 650 Q 325 665 325 700" class="backline circultline9 line86"></path>
<path d="M 325 600 Q 325 635 325 650 Q 325 665 325 700" class="frontline circultline9 line86"></path>
<path d="M 41.666666666666664 700 L 41.666666666666664 800" class="backline circultline1 line91"></path>
<path d="M 41.666666666666664 700 L 41.666666666666664 800" class="frontline circultline1 line91"></path>
<path d="M 141.66666666666669 700 L 141.66666666666669 800" class="backline circultline1 line95"></path>
<path d="M 141.66666666666669 700 L 141.66666666666669 800" class="frontline circultline1 line95"></path>
<path d="M 241.66666666666666 800 L 241.66666666666666 900" class="backline circultline1 line109"></path>
<path d="M 241.66666666666666 800 L 241.66666666666666 900" class="frontline circultline1 line109"></path>
</g>
<g class="layer4">
<path d="M 325 100 L 325 200" class="backline circultline4 line6"></path>
<path d="M 325 100 L 325 200" class="frontline circultline4 line6"></path>
<path d="M 25 200 L 25 300" class="backline circultline1 line10"></path>
<path d="M 25 200 L 25 300" class="frontline circultline1 line10"></path>
<path d="M 125 200 L 125 300" class="backline circultline1 line14"></path>
<path d="M 125 200 L 125 300" class="frontline circultline1 line14"></path>
<path d="M 225 200 L 225 300" class="backline circultline4 line18"></path>
<path d="M 225 200 L 225 300" class="frontline circultline4 line18"></path>
<path d="M 325 200 L 325 300" class="backline circultline4 line22"></path>
<path d="M 325 200 L 325 300" class="frontline circultline4 line22"></path>
<path d="M 25 300 L 25 400" class="backline circultline1 line26"></path>
<path d="M 25 300 L 25 400" class="frontline circultline1 line26"></path>
<path d="M 225 300 L 225 400" class="backline circultline4 line34"></path>
<path d="M 225 300 L 225 400" class="frontline circultline4 line34"></path>
<path d="M 25 400 L 25 500" class="backline circultline1 line42"></path>
<path d="M 25 400 L 25 500" class="frontline circultline1 line42"></path>
<path d="M 225 400 L 225 500" class="backline circultline4 line50"></path>
<path d="M 225 400 L 225 500" class="frontline circultline4 line50"></path>
<path d="M 25 500 Q 25 535 50 550 Q 75 565 75 600" class="backline circultline1 line58"></path>
<path d="M 25 500 Q 25 535 50 550 Q 75 565 75 600" class="frontline circultline1 line58"></path>
<path d="M 125 500 Q 125 535 133.33333333333334 550 Q 141.66666666666669 565 141.66666666666669 600" class="backline circultline1 line62"></path>
<path d="M 125 500 Q 125 535 133.33333333333334 550 Q 141.66666666666669 565 141.66666666666669 600" class="frontline circultline1 line62"></path>
<path d="M 225 500 Q 225 535 233.33333333333331 550 Q 241.66666666666666 565 241.66666666666666 600" class="backline circultline4 line66"></path>
<path d="M 225 500 Q 225 535 233.33333333333331 550 Q 241.66666666666666 565 241.66666666666666 600" class="frontline circultline4 line66"></path>
<path d="M 325 500 Q 325 535 325 550 Q 325 565 325 600" class="backline circultline9 line70"></path>
<path d="M 325 500 Q 325 535 325 550 Q 325 565 325 600" class="frontline circultline9 line70"></path>
<path d="M 75 600 Q 75 635 50 650 Q 25 665 25 700" class="backline circultline1 line77"></path>
<path d="M 75 600 Q 75 635 50 650 Q 25 665 25 700" class="frontline circultline1 line77"></path>
<path d="M 175 600 Q 175 635 166.66666666666666 650 Q 158.33333333333331 665 158.33333333333331 700" class="backline circultline4 line81"></path>
<path d="M 175 600 Q 175 635 166.66666666666666 650 Q 158.33333333333331 665 158.33333333333331 700" class="frontline circultline4 line81"></path>
<path d="M 241.66666666666666 600 Q 241.66666666666666 635 233.33333333333331 650 Q 225 665 225 700" class="backline circultline4 line83"></path>
<path d="M 241.66666666666666 600 Q 241.66666666666666 635 233.33333333333331 650 Q 225 665 225 700" class="frontline circultline4 line83"></path>
<path d="M 341.66666666666663 600 Q 341.66666666666663 635 341.66666666666663 650 Q 341.66666666666663 665 341.66666666666663 700" class="backline circultline10 line87"></path>
<path d="M 341.66666666666663 600 Q 341.66666666666663 635 341.66666666666663 650 Q 341.66666666666663 665 341.66666666666663 700" class="frontline circultline10 line87"></path>
<path d="M 25 700 L 25 800" class="backline circultline1 line90"></path>
<path d="M 25 700 L 25 800" class="frontline circultline1 line90"></path>
<path d="M 125 700 L 125 800" class="backline circultline1 line94"></path>
<path d="M 125 700 L 125 800" class="frontline circultline1 line94"></path>
<path d="M 225 800 L 225 900" class="backline circultline4 line108"></path>
<path d="M 225 800 L 225 900" class="frontline circultline4 line108"></path>
</g>
<g class="layer5">
<path d="M 58.33333333333333 400 Q 58.33333333333333 384.99999999999994 91.66666666666666 385 Q 125 384.99999999999994 125 400" class="backline circultline11 line30"></path>
<path d="M 58.33333333333333 400 Q 58.33333333333333 384.99999999999994 91.66666666666666 385 Q 125 384.99999999999994 125 400" class="frontline circultline11 line30"></path>
<path d="M 275 400 Q 275 384.99999999999994 308.3333333333333 385 Q 341.66666666666663 384.99999999999994 341.66666666666663 400" class="backline circultline9 line39"></path>
<path d="M 275 400 Q 275 384.99999999999994 308.3333333333333 385 Q 341.66666666666663 384.99999999999994 341.66666666666663 400" class="frontline circultline9 line39"></path>
<path d="M 75 500 Q 75 484.99999999999994 108.33333333333333 484.99999999999994 Q 141.66666666666666 484.99999999999994 141.66666666666669 500" class="backline circultline1 line47"></path>
<path d="M 75 500 Q 75 484.99999999999994 108.33333333333333 484.99999999999994 Q 141.66666666666666 484.99999999999994 141.66666666666669 500" class="frontline circultline1 line47"></path>
<path d="M 275 500 Q 275 484.99999999999994 308.3333333333333 484.99999999999994 Q 341.66666666666663 484.99999999999994 341.66666666666663 500" class="backline circultline10 line55"></path>
<path d="M 275 500 Q 275 484.99999999999994 308.3333333333333 484.99999999999994 Q 341.66666666666663 484.99999999999994 341.66666666666663 500" class="frontline circultline10 line55"></path>
<path d="M 175 800 Q 175 785 208.33333333333334 785 Q 241.66666666666666 785 241.66666666666666 800" class="backline circultline1 line99"></path>
<path d="M 175 800 Q 175 785 208.33333333333334 785 Q 241.66666666666666 785 241.66666666666666 800" class="frontline circultline1 line99"></path>
</g>
<g class="layer6">
<path d="M 75 300 Q 75 315 108.33333333333333 314.99999999999994 Q 141.66666666666666 315 141.66666666666669 300" class="backline circultline1 line29"></path>
<path d="M 75 300 Q 75 315 108.33333333333333 314.99999999999994 Q 141.66666666666666 315 141.66666666666669 300" class="frontline circultline1 line29"></path>
<path d="M 258.33333333333337 300 Q 258.33333333333337 315 291.66666666666663 314.99999999999994 Q 324.99999999999994 315 325 300" class="backline circultline4 line36"></path>
<path d="M 258.33333333333337 300 Q 258.33333333333337 315 291.66666666666663 314.99999999999994 Q 324.99999999999994 315 325 300" class="frontline circultline4 line36"></path>
<path d="M 58.33333333333333 400 Q 58.33333333333333 415.00000000000006 91.66666666666666 415.00000000000006 Q 125 415.00000000000006 125 400" class="backline circultline11 line44"></path>
<path d="M 58.33333333333333 400 Q 58.33333333333333 415.00000000000006 91.66666666666666 415.00000000000006 Q 125 415.00000000000006 125 400" class="frontline circultline11 line44"></path>
<path d="M 258.33333333333337 400 Q 258.33333333333337 415.00000000000006 291.66666666666663 415.00000000000006 Q 324.99999999999994 415.00000000000006 325 400" class="backline circultline1 line52"></path>
<path d="M 258.33333333333337 400 Q 258.33333333333337 415.00000000000006 291.66666666666663 415.00000000000006 Q 324.99999999999994 415.00000000000006 325 400" class="frontline circultline1 line52"></path>
<path d="M 158.33333333333331 700 Q 158.33333333333331 715 191.66666666666663 715 Q 225 715 225 700" class="backline circultline4 line96"></path>
<path d="M 158.33333333333331 700 Q 158.33333333333331 715 191.66666666666663 715 Q 225 715 225 700" class="frontline circultline4 line96"></path>
</g>
<g class="layer7">
<path d="M 75 400 Q 75 365 100 350 Q 125 335 125 300" class="backline circultline1 line31"></path>
<path d="M 75 400 Q 75 365 100 350 Q 125 335 125 300" class="frontline circultline1 line31"></path>
<path d="M 275 300 Q 275 335 300 350 Q 325 365 325 400" class="backline circultline1 line37"></path>
<path d="M 275 300 Q 275 335 300 350 Q 325 365 325 400" class="frontline circultline1 line37"></path>
<path d="M 75 400 Q 75 434.99999999999994 100 450 Q 125 465.00000000000006 125 500" class="backline circultline1 line45"></path>
<path d="M 75 400 Q 75 434.99999999999994 100 450 Q 125 465.00000000000006 125 500" class="frontline circultline1 line45"></path>
<path d="M 275 400 Q 275 434.99999999999994 300 450 Q 325 465.00000000000006 325 500" class="backline circultline9 line53"></path>
<path d="M 275 400 Q 275 434.99999999999994 300 450 Q 325 465.00000000000006 325 500" class="frontline circultline9 line53"></path>
<path d="M 175 700 Q 175 735 200 750 Q 225 765 225 800" class="backline circultline4 line97"></path>
<path d="M 175 700 Q 175 735 200 750 Q 225 765 225 800" class="frontline circultline4 line97"></path>
</g>
<g class="layer8">
<path d="M 58.33333333333333 300 Q 58.33333333333333 335 100 350 Q 141.66666666666669 365 141.66666666666669 400" class="backline circultline1 line28"></path>
<path d="M 58.33333333333333 300 Q 58.33333333333333 335 100 350 Q 141.66666666666669 365 141.66666666666669 400" class="frontline circultline1 line28"></path>
<path d="M 258.33333333333337 400 Q 258.33333333333337 365 300 350 Q 341.66666666666663 335 341.66666666666663 300" class="backline circultline1 line38"></path>
<path d="M 258.33333333333337 400 Q 258.33333333333337 365 300 350 Q 341.66666666666663 335 341.66666666666663 300" class="frontline circultline1 line38"></path>
<path d="M 58.33333333333333 500 Q 58.33333333333333 465.00000000000006 100 450 Q 141.66666666666669 434.99999999999994 141.66666666666669 400" class="backline circultline1 line46"></path>
<path d="M 58.33333333333333 500 Q 58.33333333333333 465.00000000000006 100 450 Q 141.66666666666669 434.99999999999994 141.66666666666669 400" class="frontline circultline1 line46"></path>
<path d="M 258.33333333333337 500 Q 258.33333333333337 465.00000000000006 300 450 Q 341.66666666666663 434.99999999999994 341.66666666666663 400" class="backline circultline9 line54"></path>
<path d="M 258.33333333333337 500 Q 258.33333333333337 465.00000000000006 300 450 Q 341.66666666666663 434.99999999999994 341.66666666666663 400" class="frontline circultline9 line54"></path>
<path d="M 158.33333333333331 800 Q 158.33333333333331 765 199.99999999999997 750 Q 241.66666666666666 735 241.66666666666666 700" class="backline circultline1 line98"></path>
<path d="M 158.33333333333331 800 Q 158.33333333333331 765 199.99999999999997 750 Q 241.66666666666666 735 241.66666666666666 700" class="frontline circultline1 line98"></path>
</g>

    </svg>